<svg width="32" height="32" viewBox="0 0 32 32" fill="none" xmlns="http://www.w3.org/2000/svg">
<g clip-path="url(#clip0_2892_27246)">
<rect width="32" height="32" rx="8" fill="#FAF7F3"/>
<path d="M21.4727 27.2969C20.8216 27.2969 20.3301 27.1276 19.998 26.7891C19.666 26.457 19.4674 25.9395 19.4023 25.2363L18.377 14.6016C18.3509 14.3346 18.4095 14.1165 18.5527 13.9473C18.7025 13.778 18.9076 13.6934 19.168 13.6934H28.2891C28.556 13.6934 28.7611 13.778 28.9043 13.9473C29.054 14.11 29.1159 14.3281 29.0898 14.6016L28.0645 25.2363C27.9928 25.9395 27.791 26.457 27.459 26.7891C27.127 27.1276 26.6387 27.2969 25.9941 27.2969H21.4727ZM21.5312 25.7734H25.9355C26.3132 25.7734 26.5215 25.5749 26.5605 25.1777L27.5078 15.2168H19.959L20.8965 25.1777C20.9421 25.5749 21.1536 25.7734 21.5312 25.7734ZM23.0938 14.1914L23.1719 13.1953C23.2174 12.7135 23.3281 12.3132 23.5039 11.9941C23.6797 11.6686 23.9564 11.3691 24.334 11.0957L27.4785 8.82031C27.6738 8.67708 27.8594 8.62826 28.0352 8.67383C28.2174 8.71289 28.3607 8.80404 28.4648 8.94727C28.5755 9.09049 28.6243 9.25326 28.6113 9.43555C28.5983 9.61133 28.4974 9.76432 28.3086 9.89453L25.0469 12.2383C24.8646 12.3685 24.7311 12.5117 24.6465 12.668C24.5684 12.8242 24.5195 13.026 24.5 13.2734L24.4414 14.1914H23.0938ZM7.46875 25.6367C6.47917 25.6367 5.73372 25.3893 5.23242 24.8945C4.73763 24.4062 4.49023 23.6738 4.49023 22.6973V12.4629C4.49023 12.1243 4.51628 11.8607 4.56836 11.6719C4.62695 11.4766 4.73763 11.2715 4.90039 11.0566L6.75586 8.58594V6.73047C6.75586 6.04036 6.95117 5.50977 7.3418 5.13867C7.73893 4.76758 8.30534 4.58203 9.04102 4.58203H17.2637C17.9993 4.58203 18.5625 4.76758 18.9531 5.13867C19.3503 5.50977 19.5488 6.04036 19.5488 6.73047V8.58594L21.4141 11.0566C21.5638 11.2585 21.668 11.4505 21.7266 11.6328C21.7852 11.8151 21.8145 12.056 21.8145 12.3555H20.2324C20.2324 12.2318 20.2227 12.1341 20.2031 12.0625C20.1836 11.9844 20.1413 11.903 20.0762 11.8184L18.1719 9.29883C18.1003 9.20117 18.0482 9.10677 18.0156 9.01562C17.9896 8.92448 17.9766 8.81706 17.9766 8.69336V6.94531C17.9766 6.41797 17.7357 6.1543 17.2539 6.1543H9.06055C8.57227 6.1543 8.32812 6.41797 8.32812 6.94531V8.69336C8.32812 8.81706 8.31185 8.92448 8.2793 9.01562C8.25326 9.10677 8.20443 9.20117 8.13281 9.29883L6.22852 11.8184C6.1569 11.916 6.11133 12.0137 6.0918 12.1113C6.07227 12.209 6.0625 12.3522 6.0625 12.541V22.6191C6.0625 23.5827 6.53776 24.0645 7.48828 24.0645H17.957L18.0742 25.3633C18.0807 25.4089 18.084 25.4544 18.084 25.5C18.0905 25.5456 18.097 25.5911 18.1035 25.6367H7.46875ZM10.5059 8.92773C10.3366 8.92773 10.1901 8.86589 10.0664 8.74219C9.94271 8.61849 9.88086 8.46875 9.88086 8.29297C9.88086 8.11719 9.94271 7.96745 10.0664 7.84375C10.1901 7.71354 10.3366 7.64844 10.5059 7.64844H15.7695C15.9388 7.64844 16.0853 7.71354 16.209 7.84375C16.3327 7.96745 16.3945 8.11719 16.3945 8.29297C16.3945 8.46875 16.3327 8.61849 16.209 8.74219C16.0853 8.86589 15.9388 8.92773 15.7695 8.92773H10.5059Z" fill="#686D7D"/>
</g>
<defs>
<clipPath id="clip0_2892_27246">
<rect width="32" height="32" rx="8" fill="white"/>
</clipPath>
</defs>
</svg>
