<svg width="14" height="14" viewBox="0 0 14 14" fill="none" xmlns="http://www.w3.org/2000/svg">
<path d="M-0.0078125 6.85938C-0.0078125 6.58333 0.0911458 6.34635 0.289062 6.14844C0.486979 5.95052 0.723958 5.85156 1 5.85156H5.60156V1.25781C5.60156 0.981771 5.69792 0.744792 5.89062 0.546875C6.08333 0.348958 6.32031 0.25 6.60156 0.25C6.8776 0.25 7.11458 0.348958 7.3125 0.546875C7.51042 0.744792 7.60938 0.981771 7.60938 1.25781V5.85156H12.2109C12.4818 5.85156 12.7161 5.95052 12.9141 6.14844C13.112 6.34635 13.2109 6.58333 13.2109 6.85938C13.2109 7.14062 13.112 7.38021 12.9141 7.57812C12.7161 7.77083 12.4818 7.86719 12.2109 7.86719H7.60938V12.4688C7.60938 12.7396 7.51042 12.974 7.3125 13.1719C7.11458 13.3698 6.8776 13.4688 6.60156 13.4688C6.32031 13.4688 6.08333 13.3698 5.89062 13.1719C5.69792 12.974 5.60156 12.7396 5.60156 12.4688V7.86719H1C0.723958 7.86719 0.486979 7.77083 0.289062 7.57812C0.0911458 7.38021 -0.0078125 7.14062 -0.0078125 6.85938Z" fill="white"/>
</svg>
