<svg width="18" height="17" viewBox="0 0 18 17" fill="none" xmlns="http://www.w3.org/2000/svg">
<path d="M8.96875 16.9297C7.85417 16.9297 6.8099 16.7188 5.83594 16.2969C4.86198 15.8802 4.00521 15.3021 3.26562 14.5625C2.52604 13.8229 1.94531 12.9661 1.52344 11.9922C1.10677 11.0182 0.898438 9.97396 0.898438 8.85938C0.898438 7.74479 1.10677 6.70052 1.52344 5.72656C1.94531 4.7474 2.52604 3.89062 3.26562 3.15625C4.00521 2.41667 4.86198 1.83854 5.83594 1.42188C6.8099 1 7.85417 0.789062 8.96875 0.789062C10.0833 0.789062 11.1276 1 12.1016 1.42188C13.0807 1.83854 13.9401 2.41667 14.6797 3.15625C15.4193 3.89062 15.9974 4.7474 16.4141 5.72656C16.8359 6.70052 17.0469 7.74479 17.0469 8.85938C17.0469 9.97396 16.8359 11.0182 16.4141 11.9922C15.9974 12.9661 15.4193 13.8229 14.6797 14.5625C13.9401 15.3021 13.0807 15.8802 12.1016 16.2969C11.1276 16.7188 10.0833 16.9297 8.96875 16.9297ZM8.10156 12.7109C8.2474 12.7109 8.38021 12.6771 8.5 12.6094C8.625 12.5417 8.73438 12.4401 8.82812 12.3047L12.4844 6.60156C12.5365 6.51823 12.5833 6.42969 12.625 6.33594C12.6667 6.23698 12.6875 6.14323 12.6875 6.05469C12.6875 5.85156 12.6094 5.6875 12.4531 5.5625C12.3021 5.4375 12.1302 5.375 11.9375 5.375C11.6823 5.375 11.4714 5.51042 11.3047 5.78125L8.07031 10.9531L6.57031 9.04688C6.46615 8.91667 6.36458 8.82552 6.26562 8.77344C6.16667 8.72135 6.05469 8.69531 5.92969 8.69531C5.73177 8.69531 5.5625 8.76823 5.42188 8.91406C5.28646 9.05469 5.21875 9.22396 5.21875 9.42188C5.21875 9.52083 5.23698 9.61719 5.27344 9.71094C5.3099 9.80469 5.36198 9.89583 5.42969 9.98438L7.34375 12.3125C7.45833 12.4531 7.57552 12.5547 7.69531 12.6172C7.8151 12.6797 7.95052 12.7109 8.10156 12.7109Z" fill="white"/>
</svg>
