<svg width="16" height="18" viewBox="0 0 16 18" fill="none" xmlns="http://www.w3.org/2000/svg">
<path d="M5.375 15.4922C5.52604 15.4922 5.64844 15.4479 5.74219 15.3594C5.83594 15.2708 5.88021 15.1562 5.875 15.0156L5.625 6.40625C5.625 6.26042 5.57812 6.14583 5.48438 6.0625C5.39062 5.97917 5.27083 5.9375 5.125 5.9375C4.96875 5.9375 4.84375 5.98177 4.75 6.07031C4.66146 6.15365 4.61979 6.26823 4.625 6.41406L4.85938 15.0156C4.86979 15.1615 4.91927 15.2786 5.00781 15.3672C5.10156 15.4505 5.22396 15.4922 5.375 15.4922ZM7.75781 15.4922C7.91406 15.4922 8.03906 15.4505 8.13281 15.3672C8.23177 15.2786 8.28125 15.1615 8.28125 15.0156V6.41406C8.28125 6.26823 8.23177 6.15365 8.13281 6.07031C8.03906 5.98177 7.91406 5.9375 7.75781 5.9375C7.60677 5.9375 7.48177 5.98177 7.38281 6.07031C7.28906 6.15365 7.24219 6.26823 7.24219 6.41406V15.0156C7.24219 15.1615 7.28906 15.2786 7.38281 15.3672C7.48177 15.4505 7.60677 15.4922 7.75781 15.4922ZM10.1484 15.4922C10.2995 15.4922 10.4193 15.4505 10.5078 15.3672C10.6016 15.2839 10.651 15.1667 10.6562 15.0156L10.8906 6.41406C10.8958 6.26823 10.8516 6.15365 10.7578 6.07031C10.6693 5.98177 10.5469 5.9375 10.3906 5.9375C10.25 5.9375 10.1328 5.97917 10.0391 6.0625C9.94531 6.14583 9.89583 6.26302 9.89062 6.41406L9.64844 15.0156C9.64323 15.1615 9.6849 15.2786 9.77344 15.3672C9.86719 15.4505 9.99219 15.4922 10.1484 15.4922ZM4.32812 4.03906V2.28906C4.32812 1.72656 4.5 1.28385 4.84375 0.960938C5.19271 0.632812 5.66667 0.46875 6.26562 0.46875H9.23438C9.83333 0.46875 10.3047 0.632812 10.6484 0.960938C10.9974 1.28385 11.1719 1.72656 11.1719 2.28906V4.03906H9.92969V2.36719C9.92969 2.14844 9.85677 1.97135 9.71094 1.83594C9.57031 1.70052 9.38281 1.63281 9.14844 1.63281H6.35156C6.11719 1.63281 5.92708 1.70052 5.78125 1.83594C5.64062 1.97135 5.57031 2.14844 5.57031 2.36719V4.03906H4.32812ZM0.78125 4.66406C0.625 4.66406 0.486979 4.60677 0.367188 4.49219C0.252604 4.3724 0.195312 4.23177 0.195312 4.07031C0.195312 3.91406 0.252604 3.77865 0.367188 3.66406C0.486979 3.54427 0.625 3.48438 0.78125 3.48438H14.7422C14.8984 3.48438 15.0339 3.54167 15.1484 3.65625C15.263 3.77083 15.3203 3.90885 15.3203 4.07031C15.3203 4.23177 15.263 4.3724 15.1484 4.49219C15.0391 4.60677 14.9036 4.66406 14.7422 4.66406H0.78125ZM4.17969 17.8672C3.61719 17.8672 3.16146 17.7005 2.8125 17.3672C2.46875 17.0391 2.28385 16.5938 2.25781 16.0312L1.70312 4.5H13.8125L13.2656 16.0234C13.2396 16.5859 13.0521 17.0339 12.7031 17.3672C12.3542 17.7005 11.901 17.8672 11.3438 17.8672H4.17969Z" fill="white"/>
</svg>
