<svg width="16" height="18" viewBox="0 0 16 18" fill="none" xmlns="http://www.w3.org/2000/svg">
<path d="M5.44531 15.3516C5.29948 15.3516 5.18229 15.3099 5.09375 15.2266C5.00521 15.1432 4.95833 15.0312 4.95312 14.8906L4.71875 6.53906C4.71354 6.40365 4.75521 6.29427 4.84375 6.21094C4.9375 6.1224 5.05729 6.07812 5.20312 6.07812C5.34375 6.07812 5.45833 6.11979 5.54688 6.20312C5.64062 6.28646 5.6875 6.39583 5.6875 6.53125L5.92969 14.8906C5.92969 15.026 5.88542 15.138 5.79688 15.2266C5.70833 15.3099 5.59115 15.3516 5.44531 15.3516ZM7.75781 15.3516C7.61198 15.3516 7.49219 15.3099 7.39844 15.2266C7.30469 15.138 7.25781 15.026 7.25781 14.8906V6.53906C7.25781 6.40365 7.30469 6.29427 7.39844 6.21094C7.49219 6.1224 7.61198 6.07812 7.75781 6.07812C7.90885 6.07812 8.03125 6.1224 8.125 6.21094C8.21875 6.29427 8.26562 6.40365 8.26562 6.53906V14.8906C8.26562 15.026 8.21875 15.138 8.125 15.2266C8.03125 15.3099 7.90885 15.3516 7.75781 15.3516ZM10.0781 15.3516C9.92708 15.3516 9.80729 15.3099 9.71875 15.2266C9.63021 15.138 9.58854 15.026 9.59375 14.8906L9.82812 6.53906C9.83333 6.39844 9.88021 6.28646 9.96875 6.20312C10.0573 6.11979 10.1719 6.07812 10.3125 6.07812C10.4635 6.07812 10.5833 6.1224 10.6719 6.21094C10.7604 6.29427 10.8021 6.40365 10.7969 6.53906L10.5625 14.8906C10.5573 15.0312 10.5104 15.1432 10.4219 15.2266C10.3333 15.3099 10.2188 15.3516 10.0781 15.3516ZM4.32812 4.03906V2.28906C4.32812 1.72656 4.5 1.28385 4.84375 0.960938C5.19271 0.632812 5.66667 0.46875 6.26562 0.46875H9.23438C9.83333 0.46875 10.3047 0.632812 10.6484 0.960938C10.9974 1.28385 11.1719 1.72656 11.1719 2.28906V4.03906H9.92969V2.36719C9.92969 2.14844 9.85677 1.97135 9.71094 1.83594C9.57031 1.70052 9.38281 1.63281 9.14844 1.63281H6.35156C6.11719 1.63281 5.92708 1.70052 5.78125 1.83594C5.64062 1.97135 5.57031 2.14844 5.57031 2.36719V4.03906H4.32812ZM0.78125 4.66406C0.625 4.66406 0.486979 4.60677 0.367188 4.49219C0.252604 4.3724 0.195312 4.23177 0.195312 4.07031C0.195312 3.91406 0.252604 3.77865 0.367188 3.66406C0.486979 3.54427 0.625 3.48438 0.78125 3.48438H14.7422C14.8984 3.48438 15.0339 3.54167 15.1484 3.65625C15.263 3.77083 15.3203 3.90885 15.3203 4.07031C15.3203 4.23177 15.263 4.3724 15.1484 4.49219C15.0391 4.60677 14.9036 4.66406 14.7422 4.66406H0.78125ZM4.17969 17.8672C3.61719 17.8672 3.16146 17.7005 2.8125 17.3672C2.46875 17.0391 2.28385 16.5938 2.25781 16.0312L1.70312 4.51562H2.92969L3.48438 15.8906C3.49479 16.1198 3.57552 16.3099 3.72656 16.4609C3.8776 16.612 4.0651 16.6875 4.28906 16.6875H11.2188C11.4479 16.6875 11.638 16.612 11.7891 16.4609C11.9401 16.3151 12.0208 16.125 12.0312 15.8906L12.5547 4.51562H13.8125L13.2656 16.0234C13.2396 16.5859 13.0521 17.0339 12.7031 17.3672C12.3542 17.7005 11.901 17.8672 11.3438 17.8672H4.17969Z" fill="#616880"/>
</svg>
