<svg width="40" height="37" viewBox="0 0 40 37" fill="none" xmlns="http://www.w3.org/2000/svg">
<path d="M27.6562 36.875C26.6146 36.875 25.8281 36.6042 25.2969 36.0625C24.7656 35.5312 24.4479 34.7031 24.3438 33.5781L22.7031 16.5625C22.6615 16.1354 22.7552 15.7865 22.9844 15.5156C23.224 15.2448 23.5521 15.1094 23.9688 15.1094H38.5625C38.9896 15.1094 39.3177 15.2448 39.5469 15.5156C39.7865 15.776 39.8854 16.125 39.8438 16.5625L38.2031 33.5781C38.0885 34.7031 37.7656 35.5312 37.2344 36.0625C36.7031 36.6042 35.9219 36.875 34.8906 36.875H27.6562ZM27.75 34.4375H34.7969C35.401 34.4375 35.7344 34.1198 35.7969 33.4844L37.3125 17.5469H25.2344L26.7344 33.4844C26.8073 34.1198 27.1458 34.4375 27.75 34.4375ZM30.25 15.9062L30.375 14.3125C30.4479 13.5417 30.625 12.901 30.9062 12.3906C31.1875 11.8698 31.6302 11.3906 32.2344 10.9531L37.2656 7.3125C37.5781 7.08333 37.875 7.00521 38.1562 7.07812C38.4479 7.14062 38.6771 7.28646 38.8438 7.51562C39.0208 7.74479 39.099 8.00521 39.0781 8.29688C39.0573 8.57812 38.8958 8.82292 38.5938 9.03125L33.375 12.7812C33.0833 12.9896 32.8698 13.2188 32.7344 13.4688C32.6094 13.7188 32.5312 14.0417 32.5 14.4375L32.4062 15.9062H30.25ZM5.25 34.2188C3.66667 34.2188 2.47396 33.8229 1.67188 33.0312C0.880208 32.25 0.484375 31.0781 0.484375 29.5156V13.1406C0.484375 12.599 0.526042 12.1771 0.609375 11.875C0.703125 11.5625 0.880208 11.2344 1.14062 10.8906L4.10938 6.9375V3.96875C4.10938 2.86458 4.42188 2.01562 5.04688 1.42188C5.68229 0.828125 6.58854 0.53125 7.76562 0.53125H20.9219C22.099 0.53125 23 0.828125 23.625 1.42188C24.2604 2.01562 24.5781 2.86458 24.5781 3.96875V6.9375L27.5625 10.8906C27.8021 11.2135 27.9688 11.5208 28.0625 11.8125C28.1562 12.1042 28.2031 12.4896 28.2031 12.9688H25.6719C25.6719 12.7708 25.6562 12.6146 25.625 12.5C25.5938 12.375 25.526 12.2448 25.4219 12.1094L22.375 8.07812C22.2604 7.92188 22.1771 7.77083 22.125 7.625C22.0833 7.47917 22.0625 7.30729 22.0625 7.10938V4.3125C22.0625 3.46875 21.6771 3.04688 20.9062 3.04688H7.79688C7.01562 3.04688 6.625 3.46875 6.625 4.3125V7.10938C6.625 7.30729 6.59896 7.47917 6.54688 7.625C6.50521 7.77083 6.42708 7.92188 6.3125 8.07812L3.26562 12.1094C3.15104 12.2656 3.07812 12.4219 3.04688 12.5781C3.01562 12.7344 3 12.9635 3 13.2656V29.3906C3 30.9323 3.76042 31.7031 5.28125 31.7031H22.0312L22.2188 33.7812C22.2292 33.8542 22.2344 33.9271 22.2344 34C22.2448 34.0729 22.2552 34.1458 22.2656 34.2188H5.25ZM10.1094 7.48438C9.83854 7.48438 9.60417 7.38542 9.40625 7.1875C9.20833 6.98958 9.10938 6.75 9.10938 6.46875C9.10938 6.1875 9.20833 5.94792 9.40625 5.75C9.60417 5.54167 9.83854 5.4375 10.1094 5.4375H18.5312C18.8021 5.4375 19.0365 5.54167 19.2344 5.75C19.4323 5.94792 19.5312 6.1875 19.5312 6.46875C19.5312 6.75 19.4323 6.98958 19.2344 7.1875C19.0365 7.38542 18.8021 7.48438 18.5312 7.48438H10.1094Z" fill="#686D7D"/>
</svg>
