<svg width="18" height="17" viewBox="0 0 18 17" fill="none" xmlns="http://www.w3.org/2000/svg">
<path d="M8.96875 16.9297C7.85417 16.9297 6.8099 16.7188 5.83594 16.2969C4.86198 15.8802 4.00521 15.3021 3.26562 14.5625C2.52604 13.8229 1.94531 12.9661 1.52344 11.9922C1.10677 11.0182 0.898438 9.97396 0.898438 8.85938C0.898438 7.74479 1.10677 6.70052 1.52344 5.72656C1.94531 4.7474 2.52604 3.89062 3.26562 3.15625C4.00521 2.41667 4.86198 1.83854 5.83594 1.42188C6.8099 1 7.85417 0.789062 8.96875 0.789062C10.0833 0.789062 11.1276 1 12.1016 1.42188C13.0807 1.83854 13.9401 2.41667 14.6797 3.15625C15.4193 3.89062 15.9974 4.7474 16.4141 5.72656C16.8359 6.70052 17.0469 7.74479 17.0469 8.85938C17.0469 9.97396 16.8359 11.0182 16.4141 11.9922C15.9974 12.9661 15.4193 13.8229 14.6797 14.5625C13.9401 15.3021 13.0807 15.8802 12.1016 16.2969C11.1276 16.7188 10.0833 16.9297 8.96875 16.9297ZM6.40625 12.1641C6.61979 12.1641 6.80208 12.0938 6.95312 11.9531L8.97656 9.91406L11.0078 11.9531C11.1484 12.0938 11.3255 12.1641 11.5391 12.1641C11.7474 12.1641 11.9219 12.0938 12.0625 11.9531C12.2083 11.8073 12.2812 11.6328 12.2812 11.4297C12.2812 11.2161 12.2083 11.0417 12.0625 10.9062L10.0234 8.86719L12.0703 6.82812C12.2161 6.67708 12.2891 6.5026 12.2891 6.30469C12.2891 6.10156 12.2161 5.92969 12.0703 5.78906C11.9297 5.64323 11.7578 5.57031 11.5547 5.57031C11.3516 5.57031 11.1771 5.64323 11.0312 5.78906L8.97656 7.82812L6.92969 5.78906C6.78385 5.65365 6.60938 5.58594 6.40625 5.58594C6.20312 5.58594 6.02865 5.65625 5.88281 5.79688C5.74219 5.93229 5.67188 6.10677 5.67188 6.32031C5.67188 6.51302 5.74479 6.6849 5.89062 6.83594L7.92969 8.86719L5.89062 10.9141C5.74479 11.0547 5.67188 11.2266 5.67188 11.4297C5.67188 11.6328 5.74219 11.8073 5.88281 11.9531C6.02865 12.0938 6.20312 12.1641 6.40625 12.1641Z" fill="white"/>
</svg>
